<svg width="25" height="24" viewBox="0 0 25 24" fill="none" xmlns="http://www.w3.org/2000/svg">
<path d="M18.9587 1.59607C17.95 1.48906 16.9362 1.43698 15.9217 1.44007C12.5587 1.44007 10.4687 3.58207 10.4687 7.03007V9.37107H7.64374C7.51113 9.37107 7.38395 9.42375 7.29018 9.51752C7.19642 9.61129 7.14374 9.73846 7.14374 9.87107V13.7211C7.14374 13.8537 7.19642 13.9809 7.29018 14.0746C7.38395 14.1684 7.51113 14.2211 7.64374 14.2211H10.4687V21.9411C10.4687 22.0737 10.5214 22.2009 10.6152 22.2946C10.709 22.3884 10.8361 22.4411 10.9687 22.4411H14.9467C15.0793 22.4411 15.2065 22.3884 15.3003 22.2946C15.3941 22.2009 15.4467 22.0737 15.4467 21.9411V14.2211H18.2627C18.3841 14.2211 18.5014 14.177 18.5927 14.097C18.6839 14.0169 18.743 13.9064 18.7587 13.7861L19.2557 9.93607C19.265 9.8655 19.2591 9.79377 19.2384 9.72568C19.2177 9.65758 19.1827 9.59469 19.1357 9.54121C19.0888 9.48772 19.0309 9.44488 18.9661 9.41554C18.9013 9.3862 18.8309 9.37104 18.7597 9.37107H15.4467V7.41207C15.4467 6.44207 15.6417 6.03707 16.8547 6.03707H18.8937C19.0263 6.03707 19.1535 5.98439 19.2473 5.89062C19.3411 5.79686 19.3937 5.66968 19.3937 5.53707V2.09207C19.3938 1.97068 19.3497 1.85341 19.2697 1.76215C19.1896 1.67088 19.0791 1.61185 18.9587 1.59607ZM18.3937 5.03607L16.8537 5.03707C14.6967 5.03707 14.4467 6.39307 14.4467 7.41207V9.87207C14.4467 10.0045 14.4993 10.1315 14.5928 10.2253C14.6864 10.319 14.8133 10.3718 14.9457 10.3721H18.1917L17.8227 13.2221H14.9467C14.8141 13.2221 14.687 13.2747 14.5932 13.3685C14.4994 13.4623 14.4467 13.5895 14.4467 13.7221V21.4401H11.4687V13.7221C11.4687 13.5895 11.4161 13.4623 11.3223 13.3685C11.2285 13.2747 11.1013 13.2221 10.9687 13.2221H8.14474V10.3721H10.9687C11.1013 10.3721 11.2285 10.3194 11.3223 10.2256C11.4161 10.1319 11.4687 10.0047 11.4687 9.87207V7.03007C11.4687 4.15607 13.1337 2.44007 15.9217 2.44007C16.9307 2.44007 17.8417 2.49507 18.3937 2.54307V5.03607Z" fill="#39342E"/>
</svg>
