<svg width="148" height="59" viewBox="0 0 148 59" fill="none" xmlns="http://www.w3.org/2000/svg">
<path fill-rule="evenodd" clip-rule="evenodd" d="M120.2 11.8947L120.196 11.8604C121.287 13.2547 122.266 14.1074 122.708 14.7271C122.929 15.0368 123.084 15.2652 123.188 15.4266C123.24 15.5072 123.279 15.5721 123.308 15.6227C123.333 15.6663 123.353 15.7065 123.365 15.7393C124.033 17.2263 124.29 18.288 124.243 19.0222C124.219 19.393 124.117 19.6885 123.943 19.9114C123.769 20.1351 123.532 20.2732 123.26 20.3454C122.725 20.4875 122.041 20.3787 121.36 20.161C120.673 19.9416 119.963 19.6034 119.363 19.2589C117.249 18.0504 115.599 17.3113 114.324 16.9102C113.047 16.5084 112.159 16.4503 111.559 16.5869C110.969 16.7212 110.654 17.0438 110.507 17.4344C110.357 17.8348 110.376 18.3241 110.498 18.786L110.205 18.8631C110.074 18.3658 110.043 17.8075 110.224 17.3277C110.408 16.838 110.807 16.4475 111.492 16.2915C112.167 16.1378 113.115 16.2122 114.415 16.6213C115.718 17.0311 117.388 17.7812 119.514 18.9959L119.514 18.9961C120.101 19.3331 120.79 19.6612 121.452 19.8725C122.119 20.0856 122.734 20.1718 123.182 20.0527C123.402 19.9943 123.578 19.8877 123.704 19.7251C123.832 19.5617 123.919 19.3292 123.94 19.0029C123.982 18.3438 123.75 17.3362 123.087 15.8577L123.084 15.8508L123.081 15.8436C123.081 15.8436 123.079 15.8378 123.072 15.824C123.066 15.8111 123.057 15.7939 123.044 15.7719C123.019 15.7279 122.983 15.6681 122.933 15.5902C122.833 15.4345 122.681 15.2105 122.462 14.903C122.08 14.3676 121.495 13.5819 120.631 12.4681C120.681 12.7602 120.72 13.0663 120.737 13.3684C120.769 13.9021 120.736 14.4368 120.585 14.8622C120.431 15.2925 120.146 15.6296 119.671 15.7129C119.211 15.7935 118.613 15.6286 117.846 15.1683C117.096 14.7182 116.563 14.5346 116.196 14.5152C116.014 14.5057 115.879 14.5364 115.776 14.5897C115.675 14.6426 115.597 14.7228 115.539 14.828C115.418 15.0445 115.383 15.3631 115.413 15.7289C115.442 16.0901 115.534 16.4755 115.644 16.8079L115.652 17.0074C115.536 16.6583 115.143 16.1449 115.111 15.7536C115.079 15.3669 115.11 14.9756 115.274 14.6809C115.357 14.5306 115.476 14.4048 115.636 14.3211C115.796 14.2378 115.988 14.201 116.212 14.2128C116.653 14.236 117.238 14.4499 118.002 14.9086C118.749 15.3569 119.268 15.476 119.618 15.4146C119.952 15.356 120.169 15.1251 120.299 14.7603C120.431 14.3906 120.465 13.903 120.435 13.3861C120.405 12.8718 120.312 12.3418 120.2 11.8947Z" fill="#39342E"/>
<path fill-rule="evenodd" clip-rule="evenodd" d="M107.202 25.5553C107.196 24.1004 106.897 22.7231 106.623 21.9033C106.905 22.7495 107.499 24.0631 107.505 25.554C107.512 26.997 107.237 28.538 106.364 29.7147C107.556 30.8345 109.584 32.3734 111.916 33.4593C114.295 34.5673 116.965 35.1927 119.379 34.4528C119.767 33.6103 120.454 32.3037 121.298 31.0365C122.159 29.7419 123.36 28.7247 124.418 28.0406C123.415 28.6893 122.407 29.9167 121.55 31.2043C120.695 32.4879 120.002 33.8135 119.627 34.6399L119.599 34.7013L119.535 34.7216C116.998 35.5259 114.217 34.8652 111.788 33.7339C109.356 32.6013 107.253 30.9857 106.056 29.8402L105.957 29.745L106.042 29.637C106.921 28.5246 107.209 27.0125 107.202 25.5553Z" fill="#39342E"/>
<path fill-rule="evenodd" clip-rule="evenodd" d="M106.752 22.1712C106.726 22.7341 106.797 23.4576 107.069 24.0519C106.786 23.4345 106.586 22.7315 106.616 22.1017C106.647 21.4639 106.915 20.8901 107.574 20.5804C108.217 20.2781 109.203 20.2419 110.638 20.5872C112.076 20.9331 116.501 22.9385 116.501 22.9385C118.414 23.5343 120.879 24.0104 122.562 23.9472C122.982 23.9313 123.341 23.8778 123.617 23.7814C123.895 23.6848 124.075 23.5511 124.166 23.386C124.255 23.2241 124.275 23.0021 124.17 22.6908C124.064 22.3774 123.834 21.9874 123.446 21.5095C123.845 22.0009 124.334 22.232 124.457 22.5936C124.58 22.9574 124.574 23.2732 124.431 23.5321C124.29 23.7877 124.033 23.9577 123.717 24.0675C123.401 24.1776 123.009 24.2334 122.573 24.2498C120.835 24.3152 118.248 23.7563 116.403 23.2256L116.39 23.2217L116.377 23.2152C114.325 22.3227 111.976 21.2205 110.568 20.8817C109.155 20.5418 108.252 20.5964 107.703 20.8545C107.17 21.1052 106.779 21.6163 106.752 22.1712Z" fill="#39342E"/>
<path fill-rule="evenodd" clip-rule="evenodd" d="M121.6 29.3791C119.451 29.6056 116.82 28.4606 114.945 27.5991C116.806 28.4541 119.502 29.2957 121.568 29.0779C122.597 28.9695 123.448 28.6011 123.974 27.8645C124.501 27.1262 124.725 25.9853 124.426 24.2795C124.732 26.0269 124.813 27.2101 124.22 28.0406C123.626 28.8727 122.678 29.2654 121.6 29.3791Z" fill="#39342E"/>
<path d="M93.6599 31.6289C92.866 31.6289 92.1715 31.294 91.5761 30.6242C90.9807 29.9296 90.6954 29.1606 90.7202 28.3171C91.0179 28.6893 91.4148 29.1234 91.911 29.6195C92.556 30.2397 93.1885 30.5498 93.8087 30.5498C95.2227 30.5498 96.7483 29.4211 98.3856 27.1636C98.9562 26.3698 99.5391 25.4395 100.134 24.3728C100.755 23.3309 101.338 22.165 101.883 20.8751L103.297 17.4517L97.8274 21.7309C96.1406 23.0457 94.7886 23.703 93.7715 23.703C93.2257 23.703 92.7916 23.5046 92.4691 23.1077C92.1466 22.7108 91.9854 22.3015 91.9854 21.8797C91.9854 20.813 92.9033 19.0641 94.739 16.6331C96.5747 14.1772 97.9515 12.9492 98.8693 12.9492C99.6383 12.9492 100.023 13.2345 100.023 13.8051C100.023 14.0283 98.919 15.3183 96.7111 17.675C94.5281 20.0068 93.4366 21.5821 93.4366 22.4007C93.4366 22.7232 93.6475 22.8844 94.0692 22.8844C94.863 22.8844 96.5871 21.8549 99.2414 19.7959C100.333 18.9277 101.3 18.1339 102.144 17.4145C102.987 16.6951 103.694 16.0501 104.265 15.4795C104.463 15.2315 104.662 14.9958 104.86 14.7725C105.059 14.5245 105.245 14.2764 105.418 14.0283C105.89 13.4826 106.361 13.2097 106.832 13.2097C107.502 13.2097 107.837 13.4826 107.837 14.0283C107.837 14.1276 107.316 14.9462 106.274 16.4842C105.728 17.3277 105.294 17.985 104.972 18.4564C104.649 18.9029 104.463 19.1882 104.414 19.3122C103.645 20.8006 102.466 22.9712 100.879 25.824C98.4724 29.6939 96.0661 31.6289 93.6599 31.6289Z" fill="#39342E"/>
<path d="M85.6168 24.187C84.5501 24.187 83.8183 23.9141 83.4214 23.3683C83.0245 22.7978 82.8261 22.0412 82.8261 21.0985C82.8261 20.0566 83.1485 18.8162 83.7935 17.3774C84.0416 16.8069 84.3021 16.2983 84.5749 15.8518C84.8478 15.3805 85.1331 14.9464 85.4308 14.5494C85.3316 14.5743 85.2447 14.5867 85.1703 14.5867C85.0959 14.5867 85.0215 14.5867 84.9471 14.5867C84.3517 14.5867 83.8555 14.1649 83.4586 13.3215L80.7051 16.8937C79.2414 18.8038 78.3484 19.7589 78.0259 19.7589C77.9019 19.7589 77.8398 19.7093 77.8398 19.6101C77.8398 19.486 77.9019 19.3248 78.0259 19.1263C78.1003 18.9775 78.2492 18.779 78.4724 18.531C79.4151 17.4395 80.2833 16.3604 81.0772 15.2937C81.871 14.227 82.5284 13.1851 83.0493 12.168C83.6199 10.0098 84.3393 8.93066 85.2075 8.93066C85.7781 8.93066 86.0634 9.19114 86.0634 9.71209C86.0634 10.1834 85.7533 10.8036 85.1331 11.5726C84.5377 12.3416 84.2401 12.7385 84.2401 12.7633C84.2401 13.2843 84.6246 13.5448 85.3936 13.5448C85.8401 13.5448 86.3362 13.3835 86.882 13.061L87.8495 12.4657C87.8991 12.4409 87.9735 12.4284 88.0727 12.4284C88.3704 12.4284 88.6309 12.5525 88.8542 12.8006C89.0774 13.0486 89.1518 13.2719 89.0774 13.4703L86.5099 16.7077C84.9222 18.7418 84.1284 20.3791 84.1284 21.6194C84.1284 22.7358 84.6742 23.2939 85.7657 23.2939C86.5099 23.2939 87.3037 23.0706 88.1472 22.6241C89.0154 22.1776 89.8464 21.6318 90.6402 20.9869C91.4589 20.3171 92.1411 19.6721 92.6868 19.0519L93.5799 18.01C93.6295 17.9604 93.6915 17.8984 93.7659 17.824C93.8404 17.7495 93.9024 17.7123 93.952 17.7123C94.1256 17.7123 94.2125 17.7992 94.2125 17.9728C94.2125 18.0224 94.1876 18.1093 94.138 18.2333C94.0884 18.3573 94.0016 18.4938 93.8776 18.6426L92.6868 19.9822C92.1163 20.6272 91.4093 21.2845 90.5658 21.9543C89.7472 22.5993 88.8914 23.1327 87.9983 23.5544C87.1301 23.9761 86.3362 24.187 85.6168 24.187Z" fill="#39342E"/>
<path d="M69.1456 24.2242C68.3518 24.2242 67.7192 24.0382 67.2479 23.666C66.8014 23.2691 66.5781 22.5745 66.5781 21.5823C66.5781 21.0117 66.7518 20.2923 67.0991 19.4241C67.4464 18.531 67.8805 17.5759 68.4014 16.5588C68.9224 15.5418 69.4433 14.5371 69.9643 13.5448C69.6418 13.6192 69.3565 13.6564 69.1084 13.6564C68.3642 13.6564 67.9921 13.3711 67.9921 12.8006C67.9921 12.5277 68.0913 12.3169 68.2898 12.168C68.5131 12.0192 68.7115 11.9323 68.8852 11.9075C68.8852 11.9075 68.91 11.9075 68.9596 11.9075C69.034 11.9075 69.1208 11.8951 69.2201 11.8703H71.3783C71.8248 11.2998 72.2837 10.692 72.7551 10.047C73.4249 9.20358 73.9582 8.70744 74.3551 8.55859H74.4667C74.6404 8.55859 74.8885 8.64542 75.211 8.81907C75.6079 9.04233 75.8063 9.26559 75.8063 9.48886C75.8063 9.81135 75.211 10.6424 74.0202 11.982C74.2435 12.0068 74.566 12.0192 74.9877 12.0192C75.4094 12.0192 75.9304 12.0192 76.5505 12.0192C76.8482 12.0192 77.2699 12.0192 77.8157 12.0192C78.3862 12.0192 78.9692 12.0192 79.5646 12.0192C80.1848 11.9944 80.7181 11.982 81.1646 11.982C81.6112 11.9572 81.8592 11.9447 81.9088 11.9447C81.9833 11.9696 82.0205 12.0068 82.0205 12.0564C82.0205 12.2796 80.5569 12.5773 77.6296 12.9494C75.9676 13.1727 74.69 13.3463 73.797 13.4704C72.9287 13.5944 72.4574 13.6688 72.383 13.6936C72.0357 13.9913 71.6139 14.4999 71.1178 15.2193C70.6217 15.9387 70.1255 16.7449 69.6294 17.638C69.1332 18.531 68.7115 19.3868 68.3642 20.2055C68.0417 20.9993 67.8805 21.6195 67.8805 22.066C67.8805 22.4629 68.0293 22.7978 68.327 23.0707C68.6247 23.3188 69.1084 23.4428 69.7782 23.4428C70.2247 23.4428 70.7581 23.3436 71.3783 23.1451C71.9985 22.9466 72.5814 22.7234 73.1272 22.4753C73.6977 22.2024 74.107 21.9916 74.3551 21.8427C75.0001 21.4458 75.7071 20.9249 76.4761 20.2799C77.2699 19.6101 78.0514 18.8535 78.8204 18.0101C79.1677 17.6628 79.4033 17.4891 79.5274 17.4891C79.6018 17.4891 79.639 17.5387 79.639 17.638C79.639 17.8364 79.453 18.1589 79.0808 18.6054C78.4855 19.3248 77.8157 20.0194 77.0715 20.6892C76.3521 21.3342 75.5458 21.9296 74.6528 22.4753C73.6357 23.0955 72.6558 23.542 71.7132 23.8149C70.7953 24.0878 69.9395 24.2242 69.1456 24.2242Z" fill="#39342E"/>
<path d="M57.6114 24.0751C56.4455 24.0751 55.5772 23.6906 55.0067 22.9216C54.4609 22.1526 54.0144 21.0859 53.6671 19.7215C53.2206 20.168 52.9105 20.3913 52.7368 20.3913C52.6128 20.3913 52.5508 20.2921 52.5508 20.0936C52.5508 19.9448 52.6128 19.8083 52.7368 19.6843C52.7368 19.6843 53.0469 19.2998 53.6671 18.5308C54.3121 17.7618 55.3912 16.6826 56.9044 15.2935L61.5929 10.9026C62.2379 10.2824 62.7465 9.81111 63.1186 9.48862C63.5155 9.16613 63.8008 9.00488 63.9744 9.00488C64.7682 9.00488 65.1651 9.30257 65.1651 9.89794C65.1651 10.1956 65.0039 10.5429 64.6814 10.9398C64.4333 11.2375 64.2473 11.4732 64.1232 11.6468C64.024 11.7957 63.962 11.8825 63.9372 11.9073C63.4907 12.6763 63.0814 14.0531 62.7092 16.0377C62.4364 17.5013 62.2007 18.7044 62.0022 19.6471C61.8038 20.5897 61.6425 21.2719 61.5185 21.6937C62.5604 21.6689 63.5899 21.3464 64.607 20.7262C65.6241 20.106 66.7156 19.0889 67.8815 17.6749C67.9311 17.6253 68.0055 17.5509 68.1048 17.4517C68.204 17.3524 68.3032 17.3028 68.4024 17.3028C68.5513 17.3028 68.6257 17.3648 68.6257 17.4889C68.6257 17.6129 68.5885 17.7369 68.5141 17.861C68.4397 17.985 68.3652 18.0966 68.2908 18.1959C67.5218 19.1137 66.8024 19.8703 66.1326 20.4657C65.4628 21.0363 64.7558 21.4952 64.0116 21.8425C63.2674 22.165 62.3868 22.4379 61.3697 22.6611L60.1789 23.4426C59.8564 23.6658 59.4719 23.8271 59.0254 23.9263C58.5789 24.0255 58.1075 24.0751 57.6114 24.0751ZM58.0579 22.1774C58.6285 22.1774 59.0998 22.041 59.4719 21.7681C59.7448 21.6192 60.0053 21.2099 60.2534 20.5401C60.5262 19.8455 60.7867 18.9897 61.0348 17.9726C61.2332 17.1044 61.3821 16.2609 61.4813 15.4423C61.6053 14.5989 61.717 13.7926 61.8162 13.0236L61.965 11.7585C61.3945 12.1802 60.6751 12.7879 59.8068 13.5818C58.9386 14.3756 58.0827 15.2066 57.2393 16.0749C56.3959 16.9431 55.8501 17.5881 55.602 18.0098C55.354 18.4067 55.2175 18.7044 55.1927 18.9029C55.0935 19.8952 55.3292 20.689 55.8997 21.2843C56.4951 21.8797 57.2145 22.1774 58.0579 22.1774Z" fill="#39342E"/>
<path d="M40.3499 24.1864C39.7546 24.1864 39.1592 23.9755 38.5638 23.5538C37.9685 23.1321 37.6336 22.6359 37.5591 22.0654C37.3111 20.1552 38.5142 17.8854 41.1686 15.2558C43.7981 12.6263 46.1672 11.3115 48.2758 11.3115C48.8463 11.3115 49.2929 11.448 49.6153 11.7208C49.789 11.8945 49.913 12.1302 49.9874 12.4278C50.0867 12.7255 50.1611 12.8744 50.2107 12.8744C50.3099 12.8744 50.3968 12.862 50.4712 12.8372C50.5456 12.7875 50.6324 12.7627 50.7317 12.7627C51.0293 12.7627 51.2898 12.8744 51.5131 13.0976C51.7363 13.3209 51.8604 13.5193 51.8852 13.693C51.91 13.7426 51.1162 14.9706 49.5037 17.3768C47.8913 19.7335 47.1594 21.3335 47.3083 22.177C47.4323 22.7475 47.7052 23.0328 48.1269 23.0328C49.4169 23.0328 51.7736 20.8994 55.1969 16.6326C55.2713 16.5334 55.3458 16.4838 55.4202 16.4838C55.5442 16.4838 55.6062 16.5706 55.6062 16.7443C55.6062 16.9427 55.4946 17.1908 55.2713 17.4885C52.1208 21.7305 49.7022 23.8515 48.0153 23.8515C47.792 23.8515 47.5812 23.8142 47.3827 23.7398C46.2912 23.3181 45.7455 22.4995 45.7455 21.2839C45.7455 20.8622 45.7951 20.4405 45.8943 20.0188L43.5872 22.2514C42.8926 22.946 42.2601 23.4421 41.6895 23.7398C41.1438 24.0375 40.6972 24.1864 40.3499 24.1864ZM40.015 23.3677C41.4538 23.3677 43.4136 21.7925 45.8943 18.642L49.8386 13.2093C49.6401 12.862 49.3177 12.6883 48.8711 12.6883C47.3579 12.6883 45.3113 13.9039 42.7314 16.3349C40.0522 18.8156 38.8491 20.8622 39.122 22.4747C39.246 23.07 39.5437 23.3677 40.015 23.3677Z" fill="#39342E"/>
<path d="M6.32578 28.0195C4.39084 28.0195 2.8528 27.5606 1.71168 26.6427C0.570561 25.7497 0 24.4473 0 22.7356C0 21.4953 0.260473 20.3293 0.78142 19.2378C1.32717 18.1215 2.05898 17.1292 2.97684 16.261C3.8947 15.3927 4.93659 14.7105 6.10252 14.2144C7.29325 13.7183 8.5336 13.4702 9.82357 13.4702C11.1383 13.4702 12.1678 13.7679 12.912 14.3632C13.6811 14.9586 14.0656 15.7648 14.0656 16.7819C14.0656 17.5261 13.5818 18.4936 12.6144 19.6843C11.6469 20.8751 11.1631 21.272 11.1631 20.8751C11.1631 20.7759 11.2004 20.6766 11.2748 20.5774C12.0686 19.4115 12.4655 18.32 12.4655 17.3029C12.4655 16.385 12.1678 15.6532 11.5725 15.1075C11.0019 14.5617 10.2453 14.2888 9.30262 14.2888C8.26073 14.2888 7.25604 14.5493 6.28857 15.0702C5.34591 15.5664 4.50247 16.2362 3.75826 17.0796C3.01405 17.923 2.43108 18.8533 2.00937 19.8704C1.58765 20.8875 1.37679 21.8922 1.37679 22.8844C1.37679 24.2488 1.81091 25.2783 2.67915 25.9729C3.57221 26.6923 4.73813 27.052 6.17694 27.052C7.64055 27.052 9.04215 26.7791 10.3817 26.2334C11.7461 25.7124 12.9616 24.9558 14.0284 23.9636C15.2935 22.7728 16.5711 21.0363 17.861 18.7541L21.0983 12.912C21.9418 11.5725 22.8224 9.96001 23.7403 8.07467C24.6581 6.16454 25.6256 3.98152 26.6427 1.52563C23.0705 1.47602 19.5975 1.82331 16.2238 2.56752C12.6268 3.33654 9.96001 4.40324 8.22352 5.76763C7.47931 6.31338 7.1072 6.88394 7.1072 7.47931C7.1072 8.00025 7.39248 8.43438 7.96304 8.78168C8.55841 9.10417 9.30262 9.26541 10.1957 9.26541C10.7166 9.26541 11.3368 9.19099 12.0562 9.04215C12.7756 8.89331 13.4702 8.69485 14.14 8.44678C14.8098 8.1739 15.3183 7.87622 15.6656 7.55373C15.9137 7.35527 16.0873 7.25605 16.1866 7.25605C16.385 7.25605 16.4222 7.35527 16.2982 7.55373C15.7772 8.1739 15.0951 8.69485 14.2516 9.11657C13.433 9.53829 12.5647 9.86078 11.6469 10.084C10.729 10.2825 9.87318 10.3817 9.07936 10.3817C7.86381 10.3817 6.90875 10.1461 6.21415 9.67473C5.54436 9.17859 5.20947 8.54601 5.20947 7.77699C5.20947 6.88394 5.65599 6.0157 6.54904 5.17226C8.23592 3.535 11.25 2.31945 15.5912 1.52563C17.2781 1.22795 19.089 1.01709 21.0239 0.893052C22.9589 0.74421 25.0178 0.682192 27.2009 0.706999C27.7466 0.235666 28.2676 0 28.7637 0C29.2598 0 29.4459 0.260474 29.3219 0.781421C30.8847 0.88065 32.4599 1.0791 34.0476 1.37679C35.66 1.67447 37.1237 2.09619 38.4384 2.64195C39.778 3.16289 40.8571 3.82028 41.6757 4.6141C42.4944 5.38312 42.9037 6.30098 42.9037 7.36768C42.9037 8.5088 42.5192 9.60031 41.7502 10.6422C41.0059 11.6593 40.0385 12.5647 38.8477 13.3586C37.6818 14.1524 36.4539 14.785 35.1639 15.2563C33.9732 15.678 32.6956 16.0129 31.3312 16.261C29.9916 16.5091 28.6645 16.6331 27.3497 16.6331C26.3574 16.6331 25.4024 16.5587 24.4845 16.4098C23.5914 16.261 22.7728 16.0253 22.0286 15.7028C20.5154 17.9106 19.2502 19.7092 18.2331 21.0983C17.2409 22.4875 16.4718 23.455 15.9261 24.0008C13.2469 26.6799 10.0468 28.0195 6.32578 28.0195ZM26.4194 15.74C27.3373 15.74 28.2428 15.6532 29.1358 15.4796C30.0537 15.2811 31.0335 15.0206 32.0754 14.6981C33.1173 14.3508 34.1716 13.9167 35.2383 13.3958C36.305 12.85 37.2849 12.2423 38.1779 11.5725C39.071 10.8779 39.7904 10.1461 40.3362 9.37704C40.8819 8.58322 41.1548 7.7894 41.1548 6.99557C41.1548 6.10252 40.7827 5.3335 40.0385 4.68852C39.2943 4.01873 38.3144 3.47298 37.0989 3.05126C35.8833 2.62954 34.5685 2.30705 33.1545 2.08379C31.7405 1.83572 30.3762 1.67447 29.0614 1.60005L27.8706 5.3211C27.4489 6.3878 26.8536 7.62815 26.0845 9.04215C25.3155 10.4561 24.3729 12.0438 23.2565 13.8051L22.4379 15.0702C22.6116 15.1695 22.7976 15.2563 22.9961 15.3307C23.2193 15.3803 23.455 15.4299 23.7031 15.4796C24.1744 15.5788 24.6333 15.6532 25.0799 15.7028C25.5264 15.7276 25.9729 15.74 26.4194 15.74Z" fill="#39342E"/>
<path d="M129.039 53.9935C128.194 53.9935 127.476 53.7683 126.885 53.3179C126.294 52.8393 125.956 52.2622 125.872 51.5865C125.759 50.6857 125.886 49.7848 126.252 48.8839C126.646 47.9549 127.167 47.0681 127.814 46.2236C128.49 45.379 129.208 44.5907 129.968 43.8588C132.952 40.8747 135.641 39.3826 138.033 39.3826C138.85 39.3826 139.399 39.5937 139.68 40.016C139.793 40.1568 139.92 40.4805 140.06 40.9873C143.213 35.8636 145.409 33.3018 146.648 33.3018C146.93 33.3018 147.225 33.3721 147.535 33.5129C147.844 33.6537 147.999 33.8366 147.999 34.0619C147.999 34.2026 147.929 34.3856 147.788 34.6108C146.944 35.6525 146.099 36.6941 145.254 37.7357C144.41 38.7492 143.579 39.7767 142.763 40.8184C141.384 42.5638 140.272 44.084 139.427 45.379C138.582 46.674 137.977 47.7719 137.611 48.6728C137.499 48.9543 137.386 49.3062 137.273 49.7285C137.189 50.1226 137.147 50.5308 137.147 50.9531C137.147 51.488 137.259 51.9525 137.485 52.3466C137.71 52.7408 138.118 52.9378 138.709 52.9378C139.638 52.9378 140.778 52.4874 142.13 51.5865C143.481 50.6857 145.057 49.2077 146.859 47.1526C146.972 47.04 147.07 46.9414 147.155 46.857C147.267 46.7725 147.38 46.7162 147.493 46.6881C147.746 46.6318 147.873 46.6881 147.873 46.857C147.873 46.9414 147.788 47.0963 147.619 47.3215C146.747 48.3631 145.775 49.3907 144.706 50.4041C143.636 51.4176 142.538 52.2622 141.412 52.9378C140.314 53.5853 139.286 53.9091 138.329 53.9091C137.372 53.9091 136.696 53.5853 136.302 52.9378C135.908 52.2903 135.711 51.5584 135.711 50.742C135.711 49.8974 135.866 49.1232 136.175 48.4194L132.755 51.8399C131.995 52.6 131.291 53.149 130.644 53.4868C130.024 53.8246 129.489 53.9935 129.039 53.9935ZM128.659 53.0645C129.869 53.0645 131.882 51.4035 134.697 48.0816C134.838 47.9127 135.331 47.2933 136.175 46.2236C137.02 45.1256 138.216 43.535 139.765 41.4518C139.568 41.114 139.23 40.945 138.751 40.945C137.006 40.945 134.669 42.3245 131.741 45.0834C128.983 47.6452 127.603 49.7989 127.603 51.5443C127.603 52.5578 127.955 53.0645 128.659 53.0645Z" fill="#39342E"/>
<path d="M118.992 53.867C118.176 53.867 117.416 53.6699 116.712 53.2758C116.008 52.8535 115.656 52.1638 115.656 51.2066C115.656 49.8835 116.121 48.3069 117.05 46.4771C118.007 44.6472 119.091 42.7469 120.301 40.7763C123.595 35.4274 125.932 32.7529 127.311 32.7529C127.593 32.7529 127.874 32.8655 128.156 33.0908C128.465 33.2878 128.634 33.513 128.663 33.7664L125.707 37.7358C124.552 39.2842 123.511 40.72 122.582 42.0431C121.653 43.3381 120.85 44.5064 120.175 45.548C119.837 46.0829 119.457 46.6882 119.034 47.3638C118.612 48.0395 118.232 48.7433 117.894 49.4753C117.585 50.1791 117.43 50.8969 117.43 51.6289C117.43 51.9667 117.528 52.2764 117.725 52.5579C117.922 52.8113 118.274 52.938 118.781 52.938C119.682 52.938 120.864 52.4594 122.328 51.5022C123.792 50.5169 125.242 49.1656 126.678 47.4483C126.819 47.2794 126.973 47.1246 127.142 46.9838C127.311 46.843 127.452 46.7727 127.565 46.7727C127.705 46.7727 127.776 46.8571 127.776 47.026C127.776 47.1105 127.677 47.2794 127.48 47.5328C127.311 47.758 127.17 47.941 127.058 48.0817L126.044 49.2219C125.481 49.8412 124.806 50.5169 124.017 51.2488C123.257 51.9808 122.441 52.6001 121.568 53.1069C120.724 53.6136 119.865 53.867 118.992 53.867Z" fill="#39342E"/>
<path d="M107.626 53.9942C106.416 53.9942 105.585 53.6845 105.135 53.0652C104.685 52.4177 104.459 51.559 104.459 50.4892C104.459 49.3069 104.825 47.8993 105.557 46.2664C105.839 45.6189 106.134 45.0418 106.444 44.5351C106.754 44.0002 107.077 43.5075 107.415 43.0571C107.303 43.0853 107.204 43.0993 107.12 43.0993C107.035 43.0993 106.951 43.0993 106.866 43.0993C106.191 43.0993 105.628 42.6207 105.177 41.6636L102.052 45.7175C100.391 47.8852 99.3779 48.969 99.0119 48.969C98.8712 48.969 98.8008 48.9127 98.8008 48.8001C98.8008 48.6594 98.8712 48.4764 99.0119 48.2512C99.0964 48.0822 99.2653 47.857 99.5187 47.5755C100.588 46.3368 101.574 45.1122 102.475 43.9017C103.375 42.6911 104.122 41.5087 104.713 40.3545C105.36 37.9053 106.177 36.6807 107.162 36.6807C107.809 36.6807 108.133 36.9763 108.133 37.5675C108.133 38.1023 107.781 38.8061 107.077 39.6789C106.402 40.5516 106.064 41.002 106.064 41.0302C106.064 41.6214 106.5 41.9169 107.373 41.9169C107.88 41.9169 108.443 41.734 109.062 41.368L110.16 40.6923C110.216 40.6642 110.301 40.6501 110.414 40.6501C110.751 40.6501 111.047 40.7909 111.3 41.0724C111.554 41.3539 111.638 41.6073 111.554 41.8325L108.64 45.5063C106.838 47.8148 105.937 49.6728 105.937 51.0804C105.937 52.3473 106.557 52.9807 107.795 52.9807C108.64 52.9807 109.541 52.7273 110.498 52.2206C111.483 51.7139 112.426 51.0945 113.327 50.3626C114.256 49.6025 115.03 48.8705 115.65 48.1667L116.663 46.9843C116.72 46.928 116.79 46.8576 116.874 46.7732C116.959 46.6887 117.029 46.6465 117.086 46.6465C117.283 46.6465 117.381 46.745 117.381 46.9421C117.381 46.9984 117.353 47.0969 117.297 47.2377C117.24 47.3784 117.142 47.5333 117.001 47.7022L115.65 49.2224C115.002 49.9544 114.2 50.7004 113.243 51.4605C112.314 52.1924 111.343 52.7977 110.329 53.2763C109.344 53.7549 108.443 53.9942 107.626 53.9942Z" fill="#39342E"/>
<path d="M88.7928 53.8678C88.089 53.8678 87.54 53.544 87.1459 52.8965C86.7517 52.2209 86.5547 51.5734 86.5547 50.954C86.5547 49.2649 87.7793 46.9001 90.2285 43.8597C92.7059 40.7911 94.7047 39.2568 96.2249 39.2568C97.6607 39.2568 98.3785 40.0169 98.3785 41.5372C98.3785 41.7624 98.3504 42.0017 98.2941 42.255C98.2659 42.5084 98.2237 42.7758 98.1674 43.0574C98.2237 43.1418 98.3645 43.184 98.5897 43.184C99.3498 43.184 100.251 42.9166 101.292 42.3817C101.264 42.8603 100.152 43.55 97.9563 44.4509C98.2659 45.3799 97.3369 47.1535 95.1692 49.7716C92.9452 52.5024 91.0449 53.8678 89.4684 53.8678H88.7928ZM89.5529 52.6009C90.7634 52.6009 92.3118 51.4889 94.198 49.2649C96.0279 47.0972 96.9428 45.5347 96.9428 44.5776C96.4924 44.3242 95.9293 43.6767 95.2537 42.6351C94.2965 42.6351 92.917 43.7893 91.1153 46.0978C89.3417 48.35 88.4831 50.0813 88.5394 51.2918C88.5676 52.1646 88.9054 52.6009 89.5529 52.6009Z" fill="#39342E"/>
<path d="M48.0652 58.5126C47.5585 58.5126 47.3051 58.1889 47.3051 57.5414C47.3051 56.922 47.5585 56.1338 48.0652 55.1766L56.2153 43.4372C58.7208 39.8337 60.5788 36.8778 61.7894 34.5693C62.9999 32.2608 63.6052 30.628 63.6052 29.6708C63.6052 29.2204 63.4363 28.8826 63.0984 28.6574C62.7606 28.4322 62.3665 28.2773 61.916 28.1929C61.4656 28.1084 61.0433 28.0662 60.6492 28.0662C58.2563 28.0662 54.9203 29.5301 50.6411 32.4579C49.4306 33.2743 48.3186 34.1892 47.3051 35.2027C46.2916 36.2162 45.3486 37.3 44.4758 38.4543C42.7867 40.7628 41.9422 42.7052 41.9422 44.2818C41.9422 45.4923 42.5052 46.2243 43.6313 46.4776C44.0536 46.5902 44.5321 46.6465 45.067 46.6465C46.0805 46.6465 47.094 46.3932 48.1075 45.8864C49.1209 45.3797 50.1063 44.7322 51.0634 43.9439C51.7954 43.3246 52.2177 43.0149 52.3303 43.0149C52.4429 43.0149 52.4851 43.1134 52.457 43.3105C52.288 43.9017 51.8798 44.4647 51.2323 44.9996C50.5848 45.5345 49.8107 46.0272 48.9098 46.4776C48.0089 46.8999 47.094 47.2377 46.165 47.4911C45.2641 47.7163 44.4618 47.8289 43.758 47.8289C42.6319 47.8289 41.6466 47.5474 40.802 46.9844C39.9574 46.3932 39.5352 45.5345 39.5352 44.4084C39.5352 42.6912 40.5346 40.5798 42.5334 38.0742C44.4477 35.6532 46.8125 33.4995 49.6277 31.6133C50.7819 30.8251 52.1332 30.079 53.6816 29.3752C55.2299 28.6433 56.7924 28.0521 58.3689 27.6017C59.9454 27.1231 61.353 26.8838 62.5917 26.8838C64.8157 26.8838 65.9277 27.6157 65.9277 29.0796C65.9277 30.8532 64.5905 33.9077 61.916 38.2431C60.0299 41.2273 57.5384 44.7744 54.4417 48.8846C51.8798 52.291 50.5848 53.9942 50.5567 53.9942C50.6411 53.9942 51.9924 52.5444 54.6106 49.6447C56.2153 47.843 57.7214 46.2383 59.129 44.8307C60.5647 43.395 61.8879 42.1422 63.0984 41.0724C63.6896 40.5375 64.4075 39.876 65.2521 39.0877C66.0966 38.2713 67.0819 37.3282 68.208 36.2584C69.1933 35.3576 70.1505 34.5411 71.0795 33.8092C72.0367 33.0772 72.9094 32.7113 73.6977 32.7113C74.5141 32.7113 75.049 32.9083 75.3023 33.3025C72.7124 36.5118 70.2913 40.439 68.0391 45.0841C66.4344 48.406 65.6321 50.9256 65.6321 52.6429C65.6321 53.6564 65.8996 54.3883 66.4344 54.8388C66.9693 55.2892 67.6731 55.5144 68.5459 55.5144C69.503 55.5144 70.5024 55.247 71.544 54.7121C72.6138 54.1772 73.6695 53.4875 74.7112 52.6429C75.7528 51.7984 76.724 50.9116 77.6249 49.9825C80.8624 46.7169 83.4383 43.1838 85.3526 39.3833C86.8447 36.3992 87.5907 34.0203 87.5907 32.2468C87.5907 32.0778 87.5766 31.923 87.5485 31.7822C87.5485 31.6415 87.5344 31.5148 87.5063 31.4022C86.9151 31.4022 86.2816 31.0925 85.606 30.4732C85.1837 30.1354 84.9726 29.7835 84.9726 29.4175C84.9726 29.0796 85.1133 28.7981 85.3949 28.5729C85.6764 28.3477 86.0001 28.2351 86.3661 28.2351C86.901 28.2351 87.2951 28.4744 87.5485 28.953C87.6611 29.1782 87.8863 29.4597 88.2241 29.7975C88.4494 30.0227 88.5479 30.1917 88.5197 30.3043C88.6887 30.5576 88.9702 30.6843 89.3643 30.6843C89.7584 30.6843 90.1244 30.5154 90.4622 30.1776C90.8282 29.8398 91.2223 29.6708 91.6446 29.6708C91.8698 29.6708 91.9824 29.7553 91.9824 29.9242C91.9824 30.2339 91.715 30.5295 91.1801 30.811C90.8986 31.0081 90.5608 31.1347 90.1666 31.1911C89.9414 31.2192 89.7162 31.2474 89.491 31.2755C89.2658 31.2755 89.0406 31.2474 88.8153 31.1911C89.1532 32.3171 89.3221 33.1476 89.3221 33.6825C89.3221 35.9347 88.2523 38.8484 86.1127 42.4237C85.043 44.2255 83.8183 45.9287 82.4389 47.5333C81.0594 49.138 79.5111 50.6441 77.7938 52.0517C74.3874 54.9232 71.3611 56.359 68.7148 56.359C65.8151 56.359 64.3653 55.0077 64.3653 52.3051C64.3653 51.0383 64.6327 49.6025 65.1676 47.9978C65.7025 46.365 66.3359 44.7463 67.0679 43.1416L70.1083 36.5118C68.8696 37.469 67.8561 38.2572 67.0679 38.8766C66.3078 39.4678 65.6603 39.9745 65.1254 40.3968C64.6186 40.8191 64.126 41.2554 63.6474 41.7058C63.197 42.1281 62.648 42.6489 62.0005 43.2683C61.2967 43.9721 60.3536 44.9856 59.1712 46.3087C57.9888 47.6037 56.6094 49.2224 55.0329 51.1649L50.1344 57.1613C49.8529 57.4992 49.5291 57.8088 49.1632 58.0903C48.7972 58.3719 48.4312 58.5126 48.0652 58.5126Z" fill="#39342E"/>
</svg>
