<svg width="25" height="24" viewBox="0 0 25 24" fill="none" xmlns="http://www.w3.org/2000/svg">
<path d="M12.9023 3C7.95984 3 3.90234 6.85275 3.90234 11.625C3.90234 14.1675 5.07984 16.4265 6.90234 18V21.4688L10.2308 19.8045C11.0768 20.0595 11.9618 20.25 12.9023 20.25C17.8448 20.25 21.9023 16.3972 21.9023 11.625C21.9023 6.85275 17.8448 3 12.9023 3ZM12.9023 4.5C17.0716 4.5 20.4023 7.6995 20.4023 11.625C20.4023 15.5505 17.0716 18.75 12.9023 18.75C12.0061 18.75 11.1503 18.5798 10.3478 18.3045L10.0433 18.2108L8.40234 19.0312V17.3438L8.12109 17.109C6.45684 15.7973 5.40234 13.8315 5.40234 11.625C5.40234 7.6995 8.73309 4.5 12.9023 4.5ZM12.0586 9.258L7.53534 14.0392L11.5898 11.7892L13.7461 14.1097L18.2228 9.25725L14.2613 11.4847L12.0586 9.258Z" fill="#39342E"/>
</svg>
