<svg width="24" height="24" viewBox="0 0 24 24" fill="none" xmlns="http://www.w3.org/2000/svg">
<path d="M21.63 13.5995C21.5819 13.5513 21.5216 13.5171 21.4555 13.5005C21.3895 13.484 21.3201 13.4858 21.255 13.5057C19.76 13.9576 18.1704 13.9954 16.6556 13.6151C15.1407 13.2348 13.7575 12.4506 12.6531 11.3462C11.5488 10.2418 10.7648 8.85846 10.3846 7.3436C10.0045 5.82875 10.0424 4.23914 10.4944 2.74414C10.5145 2.67899 10.5164 2.6096 10.5 2.54343C10.4835 2.47727 10.4494 2.41683 10.4012 2.36862C10.353 2.32042 10.2925 2.28626 10.2264 2.26984C10.1602 2.25341 10.0908 2.25533 10.0256 2.27539C8.12455 2.8587 6.45597 4.02697 5.25752 5.61383C3.9035 7.4192 3.24613 9.65239 3.40611 11.9034C3.56608 14.1544 4.53266 16.2722 6.12839 17.868C7.72412 19.4637 9.84191 20.4303 12.0929 20.5902C14.344 20.7502 16.5772 20.0929 18.3825 18.7388C19.9688 17.5399 21.1365 15.871 21.7191 13.9698C21.7387 13.9057 21.7407 13.8376 21.7251 13.7725C21.7094 13.7073 21.6766 13.6476 21.63 13.5995ZM17.9344 18.1435C16.2736 19.3934 14.2172 20.0015 12.1437 19.8558C10.0702 19.7102 8.11908 18.8206 6.64929 17.3508C5.1795 15.881 4.28994 13.9299 4.14429 11.8564C3.99864 9.78289 4.6067 7.72654 5.85658 6.06571C6.819 4.79303 8.1122 3.80885 9.59533 3.22039C9.25584 4.75947 9.30949 6.35927 9.75133 7.87215C10.1932 9.38503 11.009 10.7622 12.1234 11.8767C13.2379 12.9911 14.6151 13.8069 16.128 14.2488C17.6408 14.6906 19.2406 14.7443 20.7797 14.4048C20.1912 15.8879 19.2071 17.1811 17.9344 18.1435Z" fill="#39342E"/>
</svg>
