<svg width="25" height="24" viewBox="0 0 25 24" fill="none" xmlns="http://www.w3.org/2000/svg">
<path d="M21.0849 15.1997L16.658 13.2188C16.4864 13.1445 16.2989 13.1142 16.1127 13.1306C15.9264 13.1469 15.7471 13.2095 15.5911 13.3125C15.5786 13.3204 15.5667 13.3292 15.5555 13.3388L13.2305 15.3207C13.1787 15.3522 13.12 15.3705 13.0595 15.374C12.999 15.3774 12.9386 15.3658 12.8836 15.3403C11.3611 14.6053 9.78517 13.0416 9.05017 11.5369C9.02417 11.4823 9.0121 11.4222 9.01504 11.3618C9.01799 11.3014 9.03585 11.2427 9.06704 11.191L11.0545 8.82753C11.0639 8.81628 11.0724 8.80409 11.0808 8.79191C11.1835 8.6361 11.2459 8.45717 11.2623 8.27125C11.2786 8.08534 11.2485 7.89827 11.1745 7.72691L9.18985 3.30753C9.09404 3.0837 8.9282 2.89699 8.71723 2.77545C8.50626 2.6539 8.26155 2.60408 8.01985 2.63347C6.84008 2.78902 5.75726 3.36872 4.97366 4.26428C4.19006 5.15985 3.75926 6.31005 3.76173 7.50003C3.76173 14.7375 9.64923 20.625 16.8867 20.625C18.0767 20.6275 19.2269 20.1967 20.1225 19.4131C21.018 18.6295 21.5977 17.5467 21.7533 16.3669C21.7825 16.1263 21.7332 15.8827 21.6127 15.6724C21.4923 15.4621 21.3071 15.2963 21.0849 15.1997ZM21.0117 16.2732C20.8793 17.2723 20.3876 18.189 19.6284 18.8519C18.8692 19.5148 17.8946 19.8785 16.8867 19.875C10.0636 19.875 4.51173 14.3232 4.51173 7.50003C4.50824 6.49217 4.87194 5.51754 5.53485 4.75835C6.19775 3.99917 7.11447 3.50742 8.1136 3.37503C8.12859 3.3741 8.14362 3.3741 8.1586 3.37503C8.23259 3.37566 8.30473 3.39816 8.36595 3.4397C8.42717 3.48124 8.47474 3.53996 8.50267 3.60847L10.4817 8.02784C10.5048 8.08186 10.5149 8.14054 10.5112 8.19916C10.5074 8.25779 10.4899 8.31471 10.4602 8.36534L8.4736 10.7278C8.46423 10.74 8.45485 10.7513 8.44642 10.7644C8.34058 10.9263 8.27825 11.1126 8.26544 11.3056C8.25263 11.4986 8.28978 11.6916 8.37329 11.866C9.18798 13.5338 10.868 15.2016 12.5545 16.0163C12.7301 16.0993 12.9242 16.1354 13.1179 16.1211C13.3116 16.1068 13.4983 16.0426 13.6599 15.9347L13.6945 15.9085L16.0224 13.9285C16.0721 13.898 16.1285 13.8799 16.1866 13.8755C16.2448 13.8711 16.3032 13.8806 16.357 13.9032L20.783 15.8869C20.8577 15.918 20.9203 15.9724 20.9615 16.042C21.0028 16.1116 21.0204 16.1927 21.0117 16.2732Z" fill="#39342E"/>
</svg>
