<svg width="62" height="62" viewBox="0 0 62 62" fill="none" xmlns="http://www.w3.org/2000/svg">
<path d="M8.94869 43.4723C5.16669 40.4472 5.16669 38.1584 5.16669 28.4167C5.16669 18.6749 5.16669 13.8027 8.94869 10.7777C12.7359 7.75 18.8222 7.75 31 7.75C43.1779 7.75 49.2668 7.75 53.0488 10.7777C56.8334 13.8027 56.8334 18.6749 56.8334 28.4167C56.8334 38.1584 56.8334 40.4472 53.0488 43.4723C49.2694 46.5 43.1779 46.5 31 46.5C24.5159 46.5 21.1834 50.9898 15.5 54.25V45.9523C12.6739 45.5312 10.5943 44.7898 8.94869 43.4723Z" stroke="#39342E" stroke-width="1.5" stroke-linecap="round" stroke-linejoin="round"/>
<path fill-rule="evenodd" clip-rule="evenodd" d="M44.2148 20.9212L34.805 26.4191L29.3287 20.6666L18.0833 33.0182L28.1633 27.2057L33.524 33.2003L44.3007 21.0623C44.2723 21.0151 44.2437 20.9681 44.2148 20.9212Z" fill="#39342E"/>
</svg>
