<svg width="24" height="24" viewBox="0 0 24 24" fill="none" xmlns="http://www.w3.org/2000/svg">
<path d="M11.625 3.75V1.5C11.625 1.40054 11.6645 1.30516 11.7348 1.23483C11.8052 1.16451 11.9005 1.125 12 1.125C12.0995 1.125 12.1948 1.16451 12.2652 1.23483C12.3355 1.30516 12.375 1.40054 12.375 1.5V3.75C12.375 3.84946 12.3355 3.94484 12.2652 4.01516C12.1948 4.08549 12.0995 4.125 12 4.125C11.9005 4.125 11.8052 4.08549 11.7348 4.01516C11.6645 3.94484 11.625 3.84946 11.625 3.75ZM17.625 12C17.625 13.1125 17.2951 14.2001 16.677 15.1251C16.0589 16.0501 15.1804 16.7711 14.1526 17.1968C13.1248 17.6226 11.9938 17.734 10.9026 17.5169C9.81147 17.2999 8.80919 16.7641 8.02252 15.9775C7.23585 15.1908 6.70012 14.1885 6.48308 13.0974C6.26604 12.0062 6.37743 10.8752 6.80318 9.84741C7.22892 8.81957 7.94989 7.94107 8.87492 7.32298C9.79994 6.7049 10.8875 6.375 12 6.375C13.4913 6.37674 14.921 6.96993 15.9756 8.02444C17.0301 9.07896 17.6233 10.5087 17.625 12ZM16.875 12C16.875 11.0358 16.5891 10.0933 16.0534 9.2916C15.5177 8.48991 14.7564 7.86506 13.8656 7.49609C12.9748 7.12711 11.9946 7.03057 11.0489 7.21867C10.1033 7.40677 9.23464 7.87107 8.55285 8.55285C7.87107 9.23464 7.40677 10.1033 7.21867 11.0489C7.03057 11.9946 7.12711 12.9748 7.49609 13.8656C7.86506 14.7564 8.48991 15.5177 9.2916 16.0534C10.0933 16.5891 11.0358 16.875 12 16.875C13.2925 16.8735 14.5316 16.3594 15.4455 15.4455C16.3594 14.5316 16.8735 13.2925 16.875 12ZM5.73469 6.26531C5.80505 6.33568 5.90049 6.37521 6 6.37521C6.09951 6.37521 6.19495 6.33568 6.26531 6.26531C6.33568 6.19495 6.37521 6.09951 6.37521 6C6.37521 5.90049 6.33568 5.80505 6.26531 5.73469L4.76531 4.23469C4.69495 4.16432 4.59951 4.12479 4.5 4.12479C4.40049 4.12479 4.30505 4.16432 4.23469 4.23469C4.16432 4.30505 4.12479 4.40049 4.12479 4.5C4.12479 4.59951 4.16432 4.69495 4.23469 4.76531L5.73469 6.26531ZM5.73469 17.7347L4.23469 19.2347C4.19985 19.2695 4.17221 19.3109 4.15335 19.3564C4.1345 19.4019 4.12479 19.4507 4.12479 19.5C4.12479 19.5493 4.1345 19.5981 4.15335 19.6436C4.17221 19.6891 4.19985 19.7305 4.23469 19.7653C4.26953 19.8002 4.31089 19.8278 4.35641 19.8466C4.40194 19.8655 4.45073 19.8752 4.5 19.8752C4.54927 19.8752 4.59806 19.8655 4.64359 19.8466C4.68911 19.8278 4.73047 19.8002 4.76531 19.7653L6.26531 18.2653C6.33568 18.1949 6.37521 18.0995 6.37521 18C6.37521 17.9005 6.33568 17.8051 6.26531 17.7347C6.19495 17.6643 6.09951 17.6248 6 17.6248C5.90049 17.6248 5.80505 17.6643 5.73469 17.7347ZM18 6.375C18.0493 6.37504 18.098 6.36537 18.1436 6.34655C18.1891 6.32773 18.2305 6.30013 18.2653 6.26531L19.7653 4.76531C19.8002 4.73047 19.8278 4.68911 19.8466 4.64359C19.8655 4.59806 19.8752 4.54927 19.8752 4.5C19.8752 4.45073 19.8655 4.40194 19.8466 4.35641C19.8278 4.31089 19.8002 4.26953 19.7653 4.23469C19.7305 4.19985 19.6891 4.17221 19.6436 4.15335C19.5981 4.1345 19.5493 4.12479 19.5 4.12479C19.4507 4.12479 19.4019 4.1345 19.3564 4.15335C19.3109 4.17221 19.2695 4.19985 19.2347 4.23469L17.7347 5.73469C17.6822 5.78713 17.6464 5.85398 17.6319 5.92676C17.6174 5.99954 17.6249 6.07499 17.6533 6.14355C17.6817 6.2121 17.7298 6.27069 17.7915 6.3119C17.8532 6.3531 17.9258 6.37506 18 6.375ZM18.2653 17.7347C18.1949 17.6643 18.0995 17.6248 18 17.6248C17.9005 17.6248 17.8051 17.6643 17.7347 17.7347C17.6643 17.8051 17.6248 17.9005 17.6248 18C17.6248 18.0995 17.6643 18.1949 17.7347 18.2653L19.2347 19.7653C19.2695 19.8002 19.3109 19.8278 19.3564 19.8466C19.4019 19.8655 19.4507 19.8752 19.5 19.8752C19.5493 19.8752 19.5981 19.8655 19.6436 19.8466C19.6891 19.8278 19.7305 19.8002 19.7653 19.7653C19.8002 19.7305 19.8278 19.6891 19.8466 19.6436C19.8655 19.5981 19.8752 19.5493 19.8752 19.5C19.8752 19.4507 19.8655 19.4019 19.8466 19.3564C19.8278 19.3109 19.8002 19.2695 19.7653 19.2347L18.2653 17.7347ZM3.75 11.625H1.5C1.40054 11.625 1.30516 11.6645 1.23483 11.7348C1.16451 11.8052 1.125 11.9005 1.125 12C1.125 12.0995 1.16451 12.1948 1.23483 12.2652C1.30516 12.3355 1.40054 12.375 1.5 12.375H3.75C3.84946 12.375 3.94484 12.3355 4.01516 12.2652C4.08549 12.1948 4.125 12.0995 4.125 12C4.125 11.9005 4.08549 11.8052 4.01516 11.7348C3.94484 11.6645 3.84946 11.625 3.75 11.625ZM12 19.875C11.9005 19.875 11.8052 19.9145 11.7348 19.9848C11.6645 20.0552 11.625 20.1505 11.625 20.25V22.5C11.625 22.5995 11.6645 22.6948 11.7348 22.7652C11.8052 22.8355 11.9005 22.875 12 22.875C12.0995 22.875 12.1948 22.8355 12.2652 22.7652C12.3355 22.6948 12.375 22.5995 12.375 22.5V20.25C12.375 20.1505 12.3355 20.0552 12.2652 19.9848C12.1948 19.9145 12.0995 19.875 12 19.875ZM22.5 11.625H20.25C20.1505 11.625 20.0552 11.6645 19.9848 11.7348C19.9145 11.8052 19.875 11.9005 19.875 12C19.875 12.0995 19.9145 12.1948 19.9848 12.2652C20.0552 12.3355 20.1505 12.375 20.25 12.375H22.5C22.5995 12.375 22.6948 12.3355 22.7652 12.2652C22.8355 12.1948 22.875 12.0995 22.875 12C22.875 11.9005 22.8355 11.8052 22.7652 11.7348C22.6948 11.6645 22.5995 11.625 22.5 11.625Z" fill="#F6EAD1"/>
</svg>
