<svg width="25" height="24" viewBox="0 0 25 24" fill="none" xmlns="http://www.w3.org/2000/svg">
<path d="M22.8786 2.76505C22.663 2.58633 22.403 2.46928 22.1263 2.42632C21.8495 2.38337 21.5663 2.4161 21.3066 2.52105L3.38962 9.75405C3.10009 9.87303 2.85359 10.0773 2.68285 10.3396C2.51211 10.602 2.42521 10.9101 2.43367 11.223C2.44213 11.5359 2.54556 11.8388 2.73023 12.0916C2.91491 12.3443 3.17208 12.5349 3.46762 12.6381L7.33362 13.9801L9.42862 20.9061C9.43262 20.9201 9.44562 20.9291 9.45162 20.9421C9.4732 20.9973 9.50472 21.0481 9.54462 21.0921C9.60523 21.1598 9.68348 21.2093 9.77062 21.2351C9.78062 21.2391 9.78762 21.2481 9.79762 21.2501H9.80362L9.80662 21.2511C9.88398 21.2677 9.96437 21.2636 10.0396 21.2391C10.0476 21.2371 10.0556 21.2371 10.0646 21.2341C10.1369 21.2087 10.2022 21.1669 10.2556 21.1121C10.2616 21.1051 10.2716 21.1041 10.2776 21.0981L13.2906 17.7721L17.6876 21.1771C17.9546 21.3861 18.2836 21.4991 18.6226 21.4991C19.3566 21.4991 19.9896 20.9851 20.1406 20.2681L23.4026 4.25005C23.4579 3.97813 23.4384 3.69628 23.3461 3.43458C23.2539 3.17287 23.0923 2.94113 22.8786 2.76405M10.5216 15.2951L9.81462 18.7321L8.33962 13.8541L15.6546 10.0441L10.6576 15.0421C10.5884 15.1112 10.5411 15.1992 10.5216 15.2951ZM19.1606 20.0671C19.1418 20.1577 19.1001 20.2421 19.0393 20.3119C18.9785 20.3818 18.9008 20.4349 18.8136 20.4661C18.7285 20.4988 18.6364 20.5088 18.5463 20.4951C18.4562 20.4815 18.3711 20.4446 18.2996 20.3881L13.5366 16.6991C13.437 16.6222 13.3122 16.5857 13.1869 16.5968C13.0616 16.6079 12.9451 16.6659 12.8606 16.7591L10.7636 19.0701L11.4696 15.6431L18.6586 8.45305C18.7428 8.36859 18.794 8.25681 18.803 8.13789C18.8121 8.01898 18.7783 7.90075 18.7078 7.80455C18.6373 7.70836 18.5348 7.64052 18.4186 7.61329C18.3025 7.58606 18.1805 7.60123 18.0746 7.65605L7.71162 13.0541L3.79462 11.6921C3.69076 11.6578 3.60018 11.5919 3.53548 11.5038C3.47077 11.4156 3.43517 11.3094 3.43362 11.2001C3.42863 11.0897 3.45811 10.9806 3.51796 10.8878C3.57781 10.7949 3.66506 10.723 3.76762 10.6821L21.6816 3.44905C21.7734 3.41005 21.8743 3.39744 21.9729 3.41263C22.0714 3.42782 22.1638 3.47022 22.2396 3.53505C22.315 3.59604 22.3719 3.67678 22.4041 3.76825C22.4362 3.85972 22.4423 3.95833 22.4216 4.05305L19.1606 20.0671Z" fill="#39342E"/>
</svg>
